<?xml version="1.0" encoding="utf-8"?>
<!-- Generator: Adobe Illustrator 27.8.1, SVG Export Plug-In . SVG Version: 6.00 Build 0)  -->
<svg version="1.1" id="Layer_1" xmlns="http://www.w3.org/2000/svg" xmlns:xlink="http://www.w3.org/1999/xlink" x="0px" y="0px"
	 viewBox="0 0 852.1 724.6" style="enable-background:new 0 0 852.1 724.6;" xml:space="preserve">
<style type="text/css">
	.st0{fill:#85DFA9;stroke:#00112C;stroke-width:1.5;stroke-linecap:round;stroke-linejoin:round;stroke-miterlimit:10;}
	.st1{fill:#FFFFFF;stroke:#00112C;stroke-width:1.5;stroke-linecap:round;stroke-linejoin:round;stroke-miterlimit:10;}
	.st2{fill:#00112C;stroke:#00112C;stroke-width:1.5;stroke-linecap:round;stroke-linejoin:round;stroke-miterlimit:10;}
	.st3{fill:#0ABF53;stroke:#00112C;stroke-width:1.5;stroke-linecap:round;stroke-linejoin:round;stroke-miterlimit:10;}
	.st4{fill:none;}
	.st5{fill:#EEF0F3;}
	.st6{fill:#EEF0F3;stroke:#00112C;stroke-width:1.5;stroke-linecap:round;stroke-linejoin:round;stroke-miterlimit:10;}
	.st7{fill:#F6F8F9;stroke:#00112C;stroke-width:1.5;stroke-linecap:round;stroke-linejoin:round;stroke-miterlimit:10;}
	.st8{fill:none;stroke:#00112C;stroke-width:1.5;stroke-linecap:round;stroke-linejoin:round;stroke-miterlimit:10;}
	.st9{fill:#FFAA80;stroke:#00112C;stroke-width:1.5;stroke-linecap:round;stroke-linejoin:round;stroke-miterlimit:10;}
	.st10{fill:#00112C;stroke:#EEF0F3;stroke-width:1.5;stroke-linecap:round;stroke-linejoin:round;stroke-miterlimit:10;}
	.st11{fill:none;stroke:#EEF0F3;stroke-width:1.5;stroke-linecap:round;stroke-linejoin:round;stroke-miterlimit:10;}
	.st12{fill:#FFFFFF;stroke:#00112C;stroke-width:1.5;stroke-miterlimit:10;}
	.st13{fill:none;stroke:#00112C;stroke-width:1.5;stroke-linecap:round;stroke-linejoin:round;}
	.st14{fill:none;stroke:#00112C;stroke-width:1.5;stroke-linecap:round;stroke-linejoin:round;stroke-dasharray:13.5132,20.2699;}
	.st15{fill:none;stroke:#00112C;stroke-width:1.5;stroke-linecap:round;stroke-linejoin:round;stroke-dasharray:13.7988,20.6982;}
	.st16{fill:none;stroke:#FFFFFF;stroke-width:1.5;stroke-linecap:round;stroke-linejoin:round;stroke-miterlimit:10;}
	.st17{fill:#E6735C;stroke:#00112C;stroke-width:1.5;stroke-linecap:round;stroke-linejoin:round;stroke-miterlimit:10;}
	.st18{fill:#FFFFFF;}
	.st19{fill:#85DFA9;}
	.st20{fill:#963B2F;stroke:#00112C;stroke-width:1.5;stroke-linecap:round;stroke-linejoin:round;stroke-miterlimit:10;}
	.st21{fill:#FFB797;stroke:#00112C;stroke-width:1.5;stroke-linecap:round;stroke-linejoin:round;stroke-miterlimit:10;}
	.st22{fill:#E07D6C;stroke:#00112C;stroke-width:1.5;stroke-linecap:round;stroke-linejoin:round;stroke-miterlimit:10;}
	.st23{fill:none;stroke:#00112C;stroke-width:8;stroke-linecap:square;stroke-linejoin:bevel;stroke-miterlimit:10;}
	.st24{fill:none;stroke:#0ABF53;stroke-width:8;stroke-linecap:square;stroke-linejoin:bevel;stroke-miterlimit:10;}
	.st25{fill:#ED8E69;stroke:#00112C;stroke-width:1.5;stroke-linecap:round;stroke-linejoin:round;}
	.st26{fill:#FFFFFF;stroke:#00112C;stroke-width:1.5;stroke-linecap:round;stroke-linejoin:round;}
	.st27{fill:#EEF0F3;stroke:#00112C;stroke-width:1.5;stroke-linecap:round;stroke-linejoin:round;}
	.st28{fill:#91533D;stroke:#91533D;stroke-width:1.5;stroke-linecap:round;stroke-linejoin:round;}
	.st29{fill:#91533D;}
	.st30{fill:#00112C;stroke:#00112C;stroke-width:1.5;stroke-linecap:round;stroke-linejoin:round;}
	.st31{fill:#0ABF53;stroke:#00112C;stroke-width:1.5;stroke-linecap:round;stroke-linejoin:round;}
	.st32{fill:#91533D;stroke:#00112C;stroke-width:1.5;stroke-linecap:round;stroke-linejoin:round;}
	.st33{fill:#85DFA9;stroke:#00112C;stroke-width:1.5;stroke-linecap:round;stroke-linejoin:round;}
	.st34{fill:#FFAA80;}
	.st35{fill:#00112C;}
	.st36{fill:#ED8E69;}
	.st37{fill:#0ABF53;}
	.st38{fill:#FFFFFF;stroke:#000929;stroke-width:1.5;stroke-linecap:round;stroke-linejoin:round;stroke-miterlimit:10;}
	.st39{fill:#00112C;stroke:#000929;stroke-width:1.5;stroke-linecap:round;stroke-linejoin:round;stroke-miterlimit:10;}
	.st40{fill:none;stroke:#000929;stroke-width:1.5;stroke-linecap:round;stroke-linejoin:round;stroke-miterlimit:10;}
	.st41{fill:#AA5950;stroke:#00112C;stroke-width:1.5;stroke-linecap:round;stroke-linejoin:round;stroke-miterlimit:10;}
	.st42{fill:#D8846A;stroke:#00112C;stroke-width:1.5;stroke-linecap:round;stroke-linejoin:round;stroke-miterlimit:10;}
	.st43{fill:#00112C;stroke:#070E15;stroke-width:1.5;stroke-linecap:round;stroke-linejoin:round;stroke-miterlimit:10;}
	.st44{fill:#F6F8F9;stroke:#000929;stroke-width:1.5;stroke-linecap:round;stroke-linejoin:round;stroke-miterlimit:10;}
	.st45{fill:none;stroke:#00112C;stroke-width:1.5;stroke-linecap:round;stroke-linejoin:round;stroke-dasharray:16.7797,25.1696;}
	.st46{fill:none;stroke:#00112C;stroke-width:1.5;stroke-linecap:round;stroke-linejoin:round;stroke-dasharray:17.1157,25.6736;}
	.st47{opacity:0.2;}
	.st48{fill:none;stroke:#00112C;stroke-width:1.5;stroke-linecap:round;stroke-linejoin:round;stroke-dasharray:3.9785,5.9678;}
	.st49{fill:#FFB69C;stroke:#00112C;stroke-width:1.5;stroke-linecap:round;stroke-linejoin:round;stroke-miterlimit:10;}
	.st50{fill:#00112C;stroke:#FFFFFF;stroke-width:1.5;stroke-linecap:round;stroke-linejoin:round;stroke-miterlimit:10;}
	.st51{fill:none;stroke:#85DFA9;stroke-width:1.5;stroke-linecap:round;stroke-linejoin:round;stroke-miterlimit:10;}
	.st52{fill:#D37162;}
	.st53{fill:#C15644;stroke:#00112C;stroke-width:1.5;stroke-linecap:round;stroke-linejoin:round;stroke-miterlimit:10;}
	.st54{fill:none;stroke:#C15644;stroke-width:1.5;stroke-linecap:round;stroke-linejoin:round;stroke-miterlimit:10;}
	.st55{fill:#9E4638;stroke:#00112C;stroke-width:1.5;stroke-linecap:round;stroke-linejoin:round;stroke-miterlimit:10;}
	.st56{fill:none;stroke:#F3EEFF;stroke-width:1.5;stroke-linecap:round;stroke-linejoin:round;stroke-miterlimit:10;}
	.st57{opacity:0.5;clip-path:url(#SVGID_00000136401163616946654080000007796238465752536751_);}
	.st58{fill:#772A23;}
	.st59{fill:#D37162;stroke:#00112C;stroke-width:1.5;stroke-linecap:round;stroke-linejoin:round;stroke-miterlimit:10;}
	.st60{fill:#89382B;}
	.st61{fill:#B25D46;stroke:#00112C;stroke-width:1.5;stroke-linecap:round;stroke-linejoin:round;stroke-miterlimit:10;}
	.st62{opacity:0.5;clip-path:url(#SVGID_00000183967887595772639630000014367802466818146698_);}
	.st63{fill:#E2745A;stroke:#00112C;stroke-width:1.5;stroke-linecap:round;stroke-linejoin:round;stroke-miterlimit:10;}
	.st64{fill:#00112C;stroke:#00122C;stroke-width:1.5;stroke-linecap:round;stroke-miterlimit:10;}
	.st65{fill:none;stroke:#00112C;stroke-width:1.5;stroke-miterlimit:10;}
	
		.st66{clip-path:url(#SVGID_00000045616126785455556930000004031353448933243780_);fill:none;stroke:#00112C;stroke-width:1.5;stroke-linecap:round;stroke-linejoin:round;stroke-miterlimit:10;}
	.st67{clip-path:url(#SVGID_00000045616126785455556930000004031353448933243780_);}
	.st68{fill:#EEF0F3;stroke:#00112C;stroke-width:1.5;stroke-miterlimit:10;}
	.st69{fill:#00122C;stroke:#00112C;stroke-width:1.5;stroke-miterlimit:10;}
	.st70{fill:#FFFFFF;stroke:#FFFFFF;stroke-width:1.5;stroke-linecap:round;stroke-linejoin:round;stroke-miterlimit:10;}
	.st71{fill:#A84E3F;stroke:#00112C;stroke-width:1.5;stroke-linecap:round;stroke-linejoin:round;stroke-miterlimit:10;}
	.st72{fill:none;stroke:#00112C;stroke-width:1.5;stroke-linecap:round;stroke-linejoin:round;stroke-dasharray:3.8945,5.8418;}
	.st73{clip-path:url(#SVGID_00000066478084749568374330000005902194056800666268_);}
	.st74{fill:#B34B36;stroke:#00112C;stroke-width:1.5;stroke-linecap:round;stroke-linejoin:round;stroke-miterlimit:10;}
	.st75{fill:#E6735C;}
	.st76{fill:#C65846;stroke:#00112C;stroke-width:1.5;stroke-linecap:round;stroke-linejoin:round;stroke-miterlimit:10;}
	.st77{fill:#DB6963;}
	.st78{fill:#FFB899;stroke:#00112C;stroke-width:1.5;stroke-linecap:round;stroke-linejoin:round;stroke-miterlimit:10;}
	.st79{fill:#ED9677;stroke:#00112C;stroke-width:1.5;stroke-linecap:round;stroke-linejoin:round;stroke-miterlimit:10;}
	.st80{fill:#B75048;}
	.st81{fill:#EEF0F3;stroke:#EEF0F3;stroke-width:1.4;stroke-linecap:round;stroke-linejoin:round;stroke-miterlimit:10;}
	.st82{fill:none;stroke:#EEF0F3;stroke-width:1.4;stroke-linecap:round;stroke-linejoin:round;stroke-miterlimit:10;}
	.st83{fill:none;stroke:#85DFA9;stroke-width:1.4;stroke-linecap:round;stroke-linejoin:round;stroke-miterlimit:10;}
	.st84{fill:#0ABF53;stroke:#0ABF53;stroke-width:1.4;stroke-linecap:round;stroke-linejoin:round;stroke-miterlimit:10;}
	.st85{fill:#00112C;stroke:#00112C;stroke-width:1.4;stroke-linecap:round;stroke-linejoin:round;stroke-miterlimit:10;}
	.st86{fill:#0ABF53;stroke:#00112C;stroke-width:1.4;stroke-linecap:round;stroke-linejoin:round;stroke-miterlimit:10;}
	.st87{fill:none;stroke:#0ABF53;stroke-width:1.4;stroke-linecap:round;stroke-linejoin:round;stroke-miterlimit:10;}
	.st88{fill:#574CFA;stroke:#574CFA;stroke-width:1.5;stroke-linecap:round;stroke-linejoin:round;stroke-miterlimit:10;}
	.st89{clip-path:url(#SVGID_00000059303836200664110730000003239663232913413280_);}
	
		.st90{clip-path:url(#SVGID_00000140703543137712910890000009895283740222920349_);fill:#0ABF53;stroke:#00112C;stroke-width:1.5;stroke-linecap:round;stroke-linejoin:round;stroke-miterlimit:10;}
	.st91{clip-path:url(#SVGID_00000140703543137712910890000009895283740222920349_);}
	
		.st92{clip-path:url(#SVGID_00000144323136405448671370000002296942733191182509_);fill:#EEF0F3;stroke:#00112C;stroke-width:1.5;stroke-linecap:round;stroke-linejoin:round;stroke-miterlimit:10;}
	.st93{clip-path:url(#SVGID_00000144323136405448671370000002296942733191182509_);}
	
		.st94{clip-path:url(#SVGID_00000144323136405448671370000002296942733191182509_);fill:none;stroke:#00112C;stroke-width:1.5;stroke-linecap:round;stroke-linejoin:round;stroke-miterlimit:10;}
	.st95{clip-path:url(#SVGID_00000144323136405448671370000002296942733191182509_);fill:#E6735C;}
	
		.st96{clip-path:url(#SVGID_00000171705222440646261400000000385922957969145504_);fill:#85DFA9;stroke:#00112C;stroke-width:1.5;stroke-linecap:round;stroke-linejoin:round;stroke-miterlimit:10;}
	.st97{clip-path:url(#SVGID_00000171705222440646261400000000385922957969145504_);}
	.st98{fill:none;stroke:#00112C;stroke-width:1.5;stroke-linecap:round;stroke-linejoin:round;stroke-dasharray:4.0227,6.034;}
	.st99{fill:#08903F;stroke:#00112C;stroke-width:1.5;stroke-linecap:round;stroke-linejoin:round;stroke-miterlimit:10;}
	.st100{fill:#D67056;stroke:#00112C;stroke-width:1.5;stroke-linecap:round;stroke-linejoin:round;stroke-miterlimit:10;}
	.st101{fill:#E08D68;stroke:#00112C;stroke-width:1.5;stroke-linecap:round;stroke-linejoin:round;stroke-miterlimit:10;}
	.st102{fill:#BF493D;}
	.st103{fill:none;stroke:#00112C;stroke-width:1.5;stroke-linecap:round;stroke-linejoin:round;stroke-dasharray:3.9628,5.9443;}
	
		.st104{clip-path:url(#SVGID_00000032624952229020407140000007522235324162041532_);fill:#00112C;stroke:#00112C;stroke-width:1.5;stroke-linecap:round;stroke-linejoin:round;stroke-miterlimit:10;}
	
		.st105{clip-path:url(#SVGID_00000142140245620728462050000013777084771970119335_);fill:#00112C;stroke:#00112C;stroke-width:1.5;stroke-linecap:round;stroke-linejoin:round;stroke-miterlimit:10;}
	.st106{fill:#A33A29;stroke:#00112C;stroke-width:1.5;stroke-linecap:round;stroke-linejoin:round;stroke-miterlimit:10;}
	.st107{fill:none;stroke:#A33A29;stroke-width:1.5;stroke-linecap:round;stroke-linejoin:round;stroke-miterlimit:10;}
	.st108{fill:#FFB699;stroke:#00112C;stroke-width:1.5;stroke-linecap:round;stroke-linejoin:round;stroke-miterlimit:10;}
	
		.st109{clip-path:url(#SVGID_00000007415377956306114120000007868302127679197332_);fill:#00112C;stroke:#00112C;stroke-width:1.5;stroke-linecap:round;stroke-linejoin:round;stroke-miterlimit:10;}
	
		.st110{clip-path:url(#SVGID_00000073684377087033183280000015373444978240381084_);fill:#00112C;stroke:#00112C;stroke-width:1.5;stroke-linecap:round;stroke-linejoin:round;stroke-miterlimit:10;}
	.st111{fill:#0ABF53;stroke:#00012C;stroke-width:1.5;stroke-linecap:round;stroke-linejoin:round;stroke-miterlimit:10;}
	.st112{fill:#00012C;stroke:#00012C;stroke-width:1.5;stroke-linecap:round;stroke-linejoin:round;stroke-miterlimit:10;}
	.st113{fill:none;stroke:#F3F6F9;stroke-width:1.5;stroke-linecap:round;stroke-linejoin:round;stroke-miterlimit:10;}
	.st114{fill:none;stroke:#00012C;stroke-width:1.5;stroke-linecap:round;stroke-linejoin:round;stroke-miterlimit:10;}
	.st115{fill:#F7F8F9;stroke:#00112C;stroke-width:1.5;stroke-linecap:round;stroke-linejoin:round;stroke-miterlimit:10;}
	.st116{fill:#FFFFFF;stroke:#00112C;stroke-width:1.5;stroke-linecap:round;stroke-miterlimit:10;}
	.st117{fill:#E86456;}
	
		.st118{clip-path:url(#SVGID_00000124154094735151275340000006506785893227482778_);fill:#00112C;stroke:#00112C;stroke-width:1.5;stroke-linecap:round;stroke-linejoin:round;stroke-miterlimit:10;}
	
		.st119{clip-path:url(#SVGID_00000086658711421807236990000009799076434557127355_);fill:#00112C;stroke:#00112C;stroke-width:1.5;stroke-linecap:round;stroke-linejoin:round;stroke-miterlimit:10;}
	.st120{fill:#0ABE53;stroke:#00112C;stroke-width:1.5;stroke-linecap:round;stroke-linejoin:round;stroke-miterlimit:10;}
	.st121{fill:#EEF0F3;stroke:#00112C;stroke-width:3;stroke-linecap:round;stroke-linejoin:round;stroke-miterlimit:10;}
	.st122{fill:#D67347;stroke:#00112C;stroke-width:1.5;stroke-linecap:round;stroke-linejoin:round;stroke-miterlimit:10;}
</style>
<g>
	<g>
		<polygon class="st1" points="492.9,166 360.8,166 20.8,684.7 832.8,684.7 		"/>
		<path class="st0" d="M409.9,91.1l-49.1,75c-3.6,5.5,0.3,12.7,6.9,12.7H486c6.5,0,10.5-7.3,6.9-12.7l-49.1-75H409.9z"/>
	</g>
	<rect x="424.1" y="459.9" class="st111" width="149" height="208.7"/>
	<polygon class="st2" points="531.4,411.3 533.8,442.6 545.1,430.6 558.5,436 560.5,420 575.5,418.8 553.4,395.5 	"/>
	<line class="st121" x1="426.7" y1="70.4" x2="426.7" y2="0"/>
	<g>
		<path class="st122" d="M538,414.9v26.9c0,7.8,6.1,14.1,13.7,14.1h5.7c0,0-9.7,68.8-69.1,64c-44.7-3.6-36.5-63.7-36.5-63.7
			l26.6-0.3L538,414.9z"/>
		<path class="st2" d="M484.6,476.1c16.9,0,31.2-11.5,35.3-27.2c-11.7,11.9-29.7,18.6-46.3,15.7c-4.2-0.7-11.4-2.9-18.8-8.4l-2.6,0
			C458.3,468.1,470.5,476.1,484.6,476.1z"/>
		<path class="st122" d="M521.2,447.7c-11.7,12.8-30.4,19.9-47.6,17c-9.9-1.7-37.1-11.3-42.4-54.8c-7.4-60.8,36.4-88.6,65.7-83.7
			c19.7,3.3,32.4,22.5,37.7,45.2c1,4.3,5.9,6.3,9.6,4.1l0,0c1.8-1.1,4-1.2,5.9-0.4c2.9,1.3,5.3,3.7,6.7,6.6c1.9,4,2,8.8,1,13.2
			c-1.7,7.7-6.2,18.7-19.9,20v11.9"/>
		<path class="st2" d="M452,360.7c-9,0.1-17.6-6.2-20.3-14.8c-2.7-8.6,0.8-18.7,8.2-23.7l9.9,6.5"/>
		<path class="st2" d="M556.5,343.2c-4.8-8.3-13.3-14.6-22.3-17.8c3.7-3.7,4-10.2,1.3-14.6c-13.1,1.2-26.1-2.1-39.1-3.9
			c-13-1.8-22.8-1.5-34.9,3.7c-7,3-12.8,8.7-15.8,15.7c-3.2,7.3-3.6,17.8,1.1,24.4c2.1,3,5.2,5.2,9.5,6c6.1,1.1,12.2-1.1,17.8-3.7
			c5.6-2.5,11.2-5.5,17.3-6.2c11.3-1.2,22.5,6.5,27.2,16.9c3.5,7.8,5,16.4,3.6,24.7c-0.8,4.7,2,9.3,6.6,10.5l3.9,1.1l0.6-2.3
			c1.6-8.1,4.3-13.7,6.9-17.3c4.2-5.9,13.4-5.4,16.6,1.2c0,0,0,0.1,0.1,0.1c0.2,0.4,0.4,0.8,0.5,1.3
			C563,370.3,563.7,355.5,556.5,343.2z"/>
		<path class="st11" d="M495.7,330.9c9.7-6.5,22.3-8.4,33.4-5"/>
		<g>
			<path class="st18" d="M471.4,395.1L471.4,395.1c9,2,18.3,2.1,27.2,0.5l0,0c0,0,1.8,12.9-12.8,13.7
				C471.1,410,471.4,395.1,471.4,395.1z"/>
			<path class="st8" d="M471.4,395.1c9,2,19.5,1.3,27.2,0.5"/>
		</g>
		<g>
			<path class="st18" d="M431.5,396.3L431.5,396.3c7.9,0.1,16.1,0.7,24-1.6h0c0,0,0.5,14.9-12.4,14.5
				C430.2,408.9,431.5,396.3,431.5,396.3z"/>
			<path class="st8" d="M431.5,396.3c7.7,0,16.1,0.7,24-1.6"/>
		</g>
		<path class="st35" d="M484.4,397.6c-4.3-0.8-8.5,2.1-9.3,6.4c-0.1,0.4-0.1,0.8-0.1,1.3c2.1,2.4,5.4,4.2,10.8,4
			c1.8-0.1,3.3-0.4,4.6-0.8c0.2-0.5,0.3-1,0.4-1.5C491.5,402.6,488.7,398.4,484.4,397.6z"/>
		<path class="st35" d="M442.6,397.7c-4.1-1.1-8.3,1.2-9.6,5.2c1.5,3.3,4.4,6.2,10.1,6.4c1.8,0.1,3.4-0.2,4.7-0.7
			c0.1-0.3,0.3-0.7,0.4-1.1C449.4,403.3,446.9,398.9,442.6,397.7z"/>
		<g>
			<path class="st35" d="M475.6,383.5c-1.6-0.3-2.9-1.6-3.2-3.3c-0.3-2.1,1.2-4.1,3.3-4.4c8.8-1.3,17.9-0.5,26.4,2.1
				c0.8,0.3,1.5,0.9,1.8,1.7c1.3,3.8-1.8,6.3-4.7,5.5c-7.2-2.2-15-2.7-22.4-1.7C476.4,383.5,476,383.5,475.6,383.5z"/>
		</g>
		<g>
			<path class="st35" d="M432.6,386.5c-1.2-0.2-2.2-1-2.8-2.2c-0.9-1.9,0-4.2,1.9-5.1c6.7-3.1,14.1-4.6,21.5-4.3
				c2.2,0.1,3.8,1.9,3.7,4c-0.1,2.1-1.9,3.8-4,3.7c-6.2-0.2-12.4,1-18,3.6C434.2,386.6,433.4,386.7,432.6,386.5z"/>
		</g>
		<path class="st8" d="M458.7,398.7c0,0,2,18.1-5.4,26.7s-3.8,17.1,5.6,15.6c9.4-1.4,12.4-6.2,12.4-6.2"/>
	</g>
	<path class="st99" d="M425.9,456.4h25.8l-5.9,36.8c-8.9,55.3-12.9,111.3-12,167.3l0.4,24.2H304.8l33.1-102.3l26.2-81
		C372.7,474.6,397.7,456.4,425.9,456.4z"/>
	<path class="st99" d="M604.7,456.1h-47.4c-4.2,35-10.2,145,0,228.9l150.1-0.2c16.5-17.1,21.5-42.3,12.6-64.3l-55.8-125.7
		C653.7,471.2,630.4,456.1,604.7,456.1z"/>
	<path class="st122" d="M461.3,640.8c-8,1.6-16,3.2-24,4.8c-0.2,3.8,2.2,7.8,5.5,9.7c3.3,1.9,7.3,2.3,11.1,1.7"/>
	<path class="st122" d="M459.9,640.6c4.2-4.4,10.2-6.7,16.3-6l77.4,11.5c2.2,0.3,4.4,0.5,6.6,0.5h32.1l29.6-7.5
		c5.3-1.2,10.8-1.2,16.1,0.2c22.9,6.4,24.3,34.9,19.3,45.4l-137.4,0l1-13.5h-89.8L459.9,640.6z"/>
	<line class="st8" x1="471.8" y1="649.1" x2="449.3" y2="671.2"/>
	<line class="st8" x1="488.4" y1="652" x2="468.8" y2="671.2"/>
	<line class="st8" x1="503.6" y1="656.2" x2="488.4" y2="671.2"/>
	<polyline class="st8" points="615.7,571 643.6,633.5 592.3,646.6 	"/>
	<path class="st8" d="M415.8,631.5c0,0,0.1-40,5.1-87.6c1.5-14.5,3.7-29,6.5-43.3l5.7-29.4"/>
	<path class="st8" d="M573.8,635c-3.6-45.4-3-84.7-1.8-117.5l1.8-46.3"/>
	<polygon class="st2" points="538.5,671.2 550.8,684.7 524.9,684.7 	"/>
	<path class="st6" d="M410.8,657.4l-46.9-164.1c-2-7-8.4-11.8-15.6-11.8H144.5c-7.2,0-12.4,6.9-10.4,13.8L181,659.4
		c2,7,8.4,11.8,15.6,11.8h203.7C407.5,671.2,412.7,664.3,410.8,657.4z"/>
	<path class="st6" d="M400.3,657.4l-46.9-164.1c-2-7-8.4-11.8-15.6-11.8H134c-7.2,0-12.4,6.9-10.4,13.8l46.9,164.1
		c2,7,8.4,11.8,15.6,11.8h203.7C397.1,671.2,402.3,664.3,400.3,657.4z"/>
	<path class="st2" d="M186.1,671.2L186.1,671.2c0,7.5,6.1,13.6,13.6,13.6h230.4v-13.6H186.1z"/>
	<path class="st6" d="M403,671.2L403,671.2c0,7.5,6.1,13.6,13.6,13.6h108.4c7.5,0,13.6-6.1,13.6-13.6l0,0H403z"/>
	<path class="st8" d="M641.3,634c6-1.4,12.3-1.4,18.2,0.3c25.9,7.3,27.5,38.5,21.9,50.4"/>
	<polygon class="st2" points="615.7,571 626.8,637.8 643.6,633.5 	"/>
	<path class="st8" d="M604.2,542.8c-7.7-17-9.2-58.1,30.3-64.2"/>
	<line class="st8" x1="609.2" y1="555.3" x2="611.8" y2="562.2"/>
	<path class="st8" d="M684.1,629.4c-21.4-4.5-40.5,4.1-40.5,4.1"/>
	<path class="st99" d="M414.5,91.1h24.5c2.6,0,4.7-2.1,4.7-4.7V75.1c0-2.6-2.1-4.7-4.7-4.7h-24.7c-2.6,0-4.7,2.2-4.7,4.8l0.2,11.3
		C409.9,89,412,91.1,414.5,91.1z"/>
	<line class="st6" x1="432.6" y1="91.1" x2="432.6" y2="80.7"/>
	<line class="st6" x1="420.8" y1="91.1" x2="420.8" y2="80.7"/>
	<g>
		<rect x="20.8" y="684.7" class="st6" width="812" height="25.8"/>
		<line class="st8" x1="595.6" y1="684.7" x2="595.6" y2="710.5"/>
	</g>
	<path class="st8" d="M472.4,448.9c0,0,17.7,2.2,24.5-18.4"/>
	<path class="st8" d="M539.8,401.5c0,0-0.6-13.9,9.3-18.4"/>
	<g>
		<line class="st114" x1="242.9" y1="471.2" x2="242.9" y2="441.2"/>
		<path class="st2" d="M322.2,442.6H163.6c-4.6,0-8.4-3.7-8.4-8.4v-120c0-4.6,3.7-8.4,8.4-8.4h158.6c4.6,0,8.4,3.7,8.4,8.4v120
			C330.6,438.8,326.8,442.6,322.2,442.6z"/>
		<g>
			<polyline class="st82" points="194,337.4 190,341.4 194,345.3 			"/>
			<line class="st82" x1="198.9" y1="341.4" x2="208.8" y2="341.4"/>
			<line class="st83" x1="213.8" y1="341.4" x2="243.5" y2="341.4"/>
			<polyline class="st83" points="194,365.2 190,369.1 194,373.1 			"/>
			<line class="st83" x1="198.9" y1="369.1" x2="218.7" y2="369.1"/>
			<polyline class="st82" points="279.4,359.2 283.3,355.3 279.4,351.3 			"/>
			<line class="st82" x1="198.3" y1="383.1" x2="208.2" y2="383.1"/>
			<line class="st83" x1="213.2" y1="383.1" x2="223.1" y2="383.1"/>
			<line class="st82" x1="228" y1="383.1" x2="242.9" y2="383.1"/>
			<line class="st82" x1="189" y1="355.3" x2="208.8" y2="355.3"/>
			<line class="st82" x1="213.8" y1="355.3" x2="228.7" y2="355.3"/>
			<line class="st83" x1="297.7" y1="369.3" x2="277.9" y2="369.3"/>
			<line class="st83" x1="268.6" y1="369.3" x2="225.9" y2="369.3"/>
			<line class="st82" x1="283.5" y1="341.4" x2="253.7" y2="341.4"/>
			<line class="st82" x1="268.6" y1="355.3" x2="253.7" y2="355.3"/>
			<line class="st82" x1="248.2" y1="355.3" x2="233.4" y2="355.3"/>
			<line class="st82" x1="263.1" y1="383.1" x2="248.2" y2="383.1"/>
			<rect x="176" y="327.5" class="st87" width="133.9" height="93.5"/>
			<line class="st82" x1="271.2" y1="359.2" x2="275.8" y2="351.3"/>
		</g>
		<g>
			<path class="st0" d="M115,684.3H63.9c-2.5,0-4.7-1.9-5-4.5l-9.5-86.4h80l-9.5,86.4C119.7,682.4,117.5,684.3,115,684.3z"/>
			<g>
				<path class="st2" d="M67.3,674.2l44.3,0c5.1,0,9.4-3.9,9.9-9l5.7-51.6H51.7l5.7,51.6C57.9,670.3,62.2,674.2,67.3,674.2z"/>
				<polygon class="st1" points="50.6,603.5 51.7,613.6 127.2,613.6 128.3,603.5 				"/>
			</g>
			<path class="st16" d="M69.5,593.4l4,56.5c0.6,8,7.1,14.2,15.1,14.2h1.9c7.9,0,14.5-6.2,15.1-14.2l4-56.5"/>
			<path class="st16" d="M109.5,593.4l-3.8,54.3c-0.6,8.8,6.3,16.3,15.1,16.3h0"/>
			<path class="st16" d="M69.5,593.4l3.8,54.3c0.6,8.8-6.3,16.3-15.1,16.3h0"/>
			<line class="st2" x1="69.5" y1="593.4" x2="70.8" y2="612.6"/>
			<line class="st8" x1="108.1" y1="612.6" x2="109.5" y2="593.4"/>
		</g>
		
			<ellipse transform="matrix(0.6753 -0.7375 0.7375 0.6753 -342.0482 375.6773)" class="st1" cx="255.7" cy="576.3" rx="9.3" ry="11.1"/>
	</g>
</g>
</svg>
