<?xml version="1.0" encoding="utf-8"?>
<!-- Generator: Adobe Illustrator 27.8.1, SVG Export Plug-In . SVG Version: 6.00 Build 0)  -->
<svg version="1.1" id="Layer_1" xmlns="http://www.w3.org/2000/svg" xmlns:xlink="http://www.w3.org/1999/xlink" x="0px" y="0px"
	 viewBox="0 0 857.2 854.9" style="enable-background:new 0 0 857.2 854.9;" xml:space="preserve">
<style type="text/css">
	.st0{fill:#85DFA9;stroke:#00112C;stroke-width:1.5;stroke-linecap:round;stroke-linejoin:round;stroke-miterlimit:10;}
	.st1{fill:#FFFFFF;stroke:#00112C;stroke-width:1.5;stroke-linecap:round;stroke-linejoin:round;stroke-miterlimit:10;}
	.st2{fill:#00112C;stroke:#00112C;stroke-width:1.5;stroke-linecap:round;stroke-linejoin:round;stroke-miterlimit:10;}
	.st3{fill:#0ABF53;stroke:#00112C;stroke-width:1.5;stroke-linecap:round;stroke-linejoin:round;stroke-miterlimit:10;}
	.st4{fill:none;}
	.st5{fill:#EEF0F3;}
	.st6{fill:#EEF0F3;stroke:#00112C;stroke-width:1.5;stroke-linecap:round;stroke-linejoin:round;stroke-miterlimit:10;}
	.st7{fill:#F6F8F9;stroke:#00112C;stroke-width:1.5;stroke-linecap:round;stroke-linejoin:round;stroke-miterlimit:10;}
	.st8{fill:none;stroke:#00112C;stroke-width:1.5;stroke-linecap:round;stroke-linejoin:round;stroke-miterlimit:10;}
	.st9{fill:#FFAA80;stroke:#00112C;stroke-width:1.5;stroke-linecap:round;stroke-linejoin:round;stroke-miterlimit:10;}
	.st10{fill:#00112C;stroke:#EEF0F3;stroke-width:1.5;stroke-linecap:round;stroke-linejoin:round;stroke-miterlimit:10;}
	.st11{fill:none;stroke:#EEF0F3;stroke-width:1.5;stroke-linecap:round;stroke-linejoin:round;stroke-miterlimit:10;}
	.st12{fill:#FFFFFF;stroke:#00112C;stroke-width:1.5;stroke-miterlimit:10;}
	.st13{fill:none;stroke:#00112C;stroke-width:1.5;stroke-linecap:round;stroke-linejoin:round;}
	.st14{fill:none;stroke:#00112C;stroke-width:1.5;stroke-linecap:round;stroke-linejoin:round;stroke-dasharray:13.5132,20.2699;}
	.st15{fill:none;stroke:#00112C;stroke-width:1.5;stroke-linecap:round;stroke-linejoin:round;stroke-dasharray:13.7988,20.6982;}
	.st16{fill:none;stroke:#FFFFFF;stroke-width:1.5;stroke-linecap:round;stroke-linejoin:round;stroke-miterlimit:10;}
	.st17{fill:#E6735C;stroke:#00112C;stroke-width:1.5;stroke-linecap:round;stroke-linejoin:round;stroke-miterlimit:10;}
	.st18{fill:#FFFFFF;}
	.st19{fill:#85DFA9;}
	.st20{fill:#963B2F;stroke:#00112C;stroke-width:1.5;stroke-linecap:round;stroke-linejoin:round;stroke-miterlimit:10;}
	.st21{fill:#FFB797;stroke:#00112C;stroke-width:1.5;stroke-linecap:round;stroke-linejoin:round;stroke-miterlimit:10;}
	.st22{fill:#E07D6C;stroke:#00112C;stroke-width:1.5;stroke-linecap:round;stroke-linejoin:round;stroke-miterlimit:10;}
	.st23{fill:none;stroke:#00112C;stroke-width:8;stroke-linecap:square;stroke-linejoin:bevel;stroke-miterlimit:10;}
	.st24{fill:none;stroke:#0ABF53;stroke-width:8;stroke-linecap:square;stroke-linejoin:bevel;stroke-miterlimit:10;}
	.st25{fill:#ED8E69;stroke:#00112C;stroke-width:1.5;stroke-linecap:round;stroke-linejoin:round;}
	.st26{fill:#FFFFFF;stroke:#00112C;stroke-width:1.5;stroke-linecap:round;stroke-linejoin:round;}
	.st27{fill:#EEF0F3;stroke:#00112C;stroke-width:1.5;stroke-linecap:round;stroke-linejoin:round;}
	.st28{fill:#91533D;stroke:#91533D;stroke-width:1.5;stroke-linecap:round;stroke-linejoin:round;}
	.st29{fill:#91533D;}
	.st30{fill:#00112C;stroke:#00112C;stroke-width:1.5;stroke-linecap:round;stroke-linejoin:round;}
	.st31{fill:#0ABF53;stroke:#00112C;stroke-width:1.5;stroke-linecap:round;stroke-linejoin:round;}
	.st32{fill:#91533D;stroke:#00112C;stroke-width:1.5;stroke-linecap:round;stroke-linejoin:round;}
	.st33{fill:#85DFA9;stroke:#00112C;stroke-width:1.5;stroke-linecap:round;stroke-linejoin:round;}
	.st34{fill:#FFAA80;}
	.st35{fill:#00112C;}
	.st36{fill:#ED8E69;}
	.st37{fill:#0ABF53;}
	.st38{fill:#FFFFFF;stroke:#000929;stroke-width:1.5;stroke-linecap:round;stroke-linejoin:round;stroke-miterlimit:10;}
	.st39{fill:#00112C;stroke:#000929;stroke-width:1.5;stroke-linecap:round;stroke-linejoin:round;stroke-miterlimit:10;}
	.st40{fill:none;stroke:#000929;stroke-width:1.5;stroke-linecap:round;stroke-linejoin:round;stroke-miterlimit:10;}
	.st41{fill:#AA5950;stroke:#00112C;stroke-width:1.5;stroke-linecap:round;stroke-linejoin:round;stroke-miterlimit:10;}
	.st42{fill:#D8846A;stroke:#00112C;stroke-width:1.5;stroke-linecap:round;stroke-linejoin:round;stroke-miterlimit:10;}
	.st43{fill:#00112C;stroke:#070E15;stroke-width:1.5;stroke-linecap:round;stroke-linejoin:round;stroke-miterlimit:10;}
	.st44{fill:#F6F8F9;stroke:#000929;stroke-width:1.5;stroke-linecap:round;stroke-linejoin:round;stroke-miterlimit:10;}
	.st45{fill:none;stroke:#00112C;stroke-width:1.5;stroke-linecap:round;stroke-linejoin:round;stroke-dasharray:16.7797,25.1696;}
	.st46{fill:none;stroke:#00112C;stroke-width:1.5;stroke-linecap:round;stroke-linejoin:round;stroke-dasharray:17.1157,25.6736;}
	.st47{opacity:0.2;}
	.st48{fill:none;stroke:#00112C;stroke-width:1.5;stroke-linecap:round;stroke-linejoin:round;stroke-dasharray:3.9785,5.9678;}
	.st49{fill:#FFB69C;stroke:#00112C;stroke-width:1.5;stroke-linecap:round;stroke-linejoin:round;stroke-miterlimit:10;}
	.st50{fill:#00112C;stroke:#FFFFFF;stroke-width:1.5;stroke-linecap:round;stroke-linejoin:round;stroke-miterlimit:10;}
	.st51{fill:none;stroke:#85DFA9;stroke-width:1.5;stroke-linecap:round;stroke-linejoin:round;stroke-miterlimit:10;}
	.st52{fill:#D37162;}
	.st53{fill:#C15644;stroke:#00112C;stroke-width:1.5;stroke-linecap:round;stroke-linejoin:round;stroke-miterlimit:10;}
	.st54{fill:none;stroke:#C15644;stroke-width:1.5;stroke-linecap:round;stroke-linejoin:round;stroke-miterlimit:10;}
	.st55{fill:#9E4638;stroke:#00112C;stroke-width:1.5;stroke-linecap:round;stroke-linejoin:round;stroke-miterlimit:10;}
	.st56{fill:none;stroke:#F3EEFF;stroke-width:1.5;stroke-linecap:round;stroke-linejoin:round;stroke-miterlimit:10;}
	.st57{opacity:0.5;clip-path:url(#SVGID_00000178917677964707221060000011054915730926420635_);}
	.st58{fill:#772A23;}
	.st59{fill:#D37162;stroke:#00112C;stroke-width:1.5;stroke-linecap:round;stroke-linejoin:round;stroke-miterlimit:10;}
	.st60{fill:#89382B;}
	.st61{fill:#B25D46;stroke:#00112C;stroke-width:1.5;stroke-linecap:round;stroke-linejoin:round;stroke-miterlimit:10;}
	.st62{opacity:0.5;clip-path:url(#SVGID_00000031921823246528534470000000617604379992524203_);}
	.st63{fill:#E2745A;stroke:#00112C;stroke-width:1.5;stroke-linecap:round;stroke-linejoin:round;stroke-miterlimit:10;}
	.st64{fill:#00112C;stroke:#00122C;stroke-width:1.5;stroke-linecap:round;stroke-miterlimit:10;}
	.st65{fill:none;stroke:#00112C;stroke-width:1.5;stroke-miterlimit:10;}
	
		.st66{clip-path:url(#SVGID_00000183220453059128024340000011989440947218140552_);fill:none;stroke:#00112C;stroke-width:1.5;stroke-linecap:round;stroke-linejoin:round;stroke-miterlimit:10;}
	.st67{clip-path:url(#SVGID_00000183220453059128024340000011989440947218140552_);}
	.st68{fill:#EEF0F3;stroke:#00112C;stroke-width:1.5;stroke-miterlimit:10;}
	.st69{fill:#00122C;stroke:#00112C;stroke-width:1.5;stroke-miterlimit:10;}
	.st70{fill:#FFFFFF;stroke:#FFFFFF;stroke-width:1.5;stroke-linecap:round;stroke-linejoin:round;stroke-miterlimit:10;}
	.st71{fill:#A84E3F;stroke:#00112C;stroke-width:1.5;stroke-linecap:round;stroke-linejoin:round;stroke-miterlimit:10;}
	.st72{fill:none;stroke:#00112C;stroke-width:1.5;stroke-linecap:round;stroke-linejoin:round;stroke-dasharray:3.8945,5.8418;}
	.st73{clip-path:url(#SVGID_00000046304664942987936590000017843825938283286190_);}
	.st74{fill:#B34B36;stroke:#00112C;stroke-width:1.5;stroke-linecap:round;stroke-linejoin:round;stroke-miterlimit:10;}
	.st75{fill:#E6735C;}
	.st76{fill:#C65846;stroke:#00112C;stroke-width:1.5;stroke-linecap:round;stroke-linejoin:round;stroke-miterlimit:10;}
	.st77{fill:#DB6963;}
	.st78{fill:#FFB899;stroke:#00112C;stroke-width:1.5;stroke-linecap:round;stroke-linejoin:round;stroke-miterlimit:10;}
	.st79{fill:#ED9677;stroke:#00112C;stroke-width:1.5;stroke-linecap:round;stroke-linejoin:round;stroke-miterlimit:10;}
	.st80{fill:#B75048;}
	.st81{fill:#EEF0F3;stroke:#EEF0F3;stroke-width:1.4;stroke-linecap:round;stroke-linejoin:round;stroke-miterlimit:10;}
	.st82{fill:none;stroke:#EEF0F3;stroke-width:1.4;stroke-linecap:round;stroke-linejoin:round;stroke-miterlimit:10;}
	.st83{fill:none;stroke:#85DFA9;stroke-width:1.4;stroke-linecap:round;stroke-linejoin:round;stroke-miterlimit:10;}
	.st84{fill:#0ABF53;stroke:#0ABF53;stroke-width:1.4;stroke-linecap:round;stroke-linejoin:round;stroke-miterlimit:10;}
	.st85{fill:#00112C;stroke:#00112C;stroke-width:1.4;stroke-linecap:round;stroke-linejoin:round;stroke-miterlimit:10;}
	.st86{fill:#0ABF53;stroke:#00112C;stroke-width:1.4;stroke-linecap:round;stroke-linejoin:round;stroke-miterlimit:10;}
	.st87{fill:none;stroke:#0ABF53;stroke-width:1.4;stroke-linecap:round;stroke-linejoin:round;stroke-miterlimit:10;}
	.st88{fill:#574CFA;stroke:#574CFA;stroke-width:1.5;stroke-linecap:round;stroke-linejoin:round;stroke-miterlimit:10;}
	.st89{clip-path:url(#SVGID_00000170993038502830399440000017156024509720499107_);}
	
		.st90{clip-path:url(#SVGID_00000105397095852046848400000007079846002810284963_);fill:#0ABF53;stroke:#00112C;stroke-width:1.5;stroke-linecap:round;stroke-linejoin:round;stroke-miterlimit:10;}
	.st91{clip-path:url(#SVGID_00000105397095852046848400000007079846002810284963_);}
	
		.st92{clip-path:url(#SVGID_00000138568721847894682920000015716417903782496959_);fill:#EEF0F3;stroke:#00112C;stroke-width:1.5;stroke-linecap:round;stroke-linejoin:round;stroke-miterlimit:10;}
	.st93{clip-path:url(#SVGID_00000138568721847894682920000015716417903782496959_);}
	
		.st94{clip-path:url(#SVGID_00000138568721847894682920000015716417903782496959_);fill:none;stroke:#00112C;stroke-width:1.5;stroke-linecap:round;stroke-linejoin:round;stroke-miterlimit:10;}
	.st95{clip-path:url(#SVGID_00000138568721847894682920000015716417903782496959_);fill:#E6735C;}
	
		.st96{clip-path:url(#SVGID_00000125588798785741586300000007720483621424976826_);fill:#85DFA9;stroke:#00112C;stroke-width:1.5;stroke-linecap:round;stroke-linejoin:round;stroke-miterlimit:10;}
	.st97{clip-path:url(#SVGID_00000125588798785741586300000007720483621424976826_);}
	.st98{fill:none;stroke:#00112C;stroke-width:1.5;stroke-linecap:round;stroke-linejoin:round;stroke-dasharray:4.0227,6.034;}
	.st99{fill:#08903F;stroke:#00112C;stroke-width:1.5;stroke-linecap:round;stroke-linejoin:round;stroke-miterlimit:10;}
	.st100{fill:#D67056;stroke:#00112C;stroke-width:1.5;stroke-linecap:round;stroke-linejoin:round;stroke-miterlimit:10;}
	.st101{fill:#E08D68;stroke:#00112C;stroke-width:1.5;stroke-linecap:round;stroke-linejoin:round;stroke-miterlimit:10;}
	.st102{fill:#BF493D;}
	.st103{fill:none;stroke:#00112C;stroke-width:1.5;stroke-linecap:round;stroke-linejoin:round;stroke-dasharray:3.9628,5.9443;}
	
		.st104{clip-path:url(#SVGID_00000072960523840833208450000006172248822340809649_);fill:#00112C;stroke:#00112C;stroke-width:1.5;stroke-linecap:round;stroke-linejoin:round;stroke-miterlimit:10;}
	
		.st105{clip-path:url(#SVGID_00000039107135368443193960000014846943048584587942_);fill:#00112C;stroke:#00112C;stroke-width:1.5;stroke-linecap:round;stroke-linejoin:round;stroke-miterlimit:10;}
	.st106{fill:#A33A29;stroke:#00112C;stroke-width:1.5;stroke-linecap:round;stroke-linejoin:round;stroke-miterlimit:10;}
	.st107{fill:none;stroke:#A33A29;stroke-width:1.5;stroke-linecap:round;stroke-linejoin:round;stroke-miterlimit:10;}
	.st108{fill:#FFB699;stroke:#00112C;stroke-width:1.5;stroke-linecap:round;stroke-linejoin:round;stroke-miterlimit:10;}
	
		.st109{clip-path:url(#SVGID_00000034801999735045026140000012421118083982841730_);fill:#00112C;stroke:#00112C;stroke-width:1.5;stroke-linecap:round;stroke-linejoin:round;stroke-miterlimit:10;}
	
		.st110{clip-path:url(#SVGID_00000065045437141401037820000006404601522452559510_);fill:#00112C;stroke:#00112C;stroke-width:1.5;stroke-linecap:round;stroke-linejoin:round;stroke-miterlimit:10;}
	.st111{fill:#0ABF53;stroke:#00012C;stroke-width:1.5;stroke-linecap:round;stroke-linejoin:round;stroke-miterlimit:10;}
	.st112{fill:#00012C;stroke:#00012C;stroke-width:1.5;stroke-linecap:round;stroke-linejoin:round;stroke-miterlimit:10;}
	.st113{fill:none;stroke:#F3F6F9;stroke-width:1.5;stroke-linecap:round;stroke-linejoin:round;stroke-miterlimit:10;}
	.st114{fill:none;stroke:#00012C;stroke-width:1.5;stroke-linecap:round;stroke-linejoin:round;stroke-miterlimit:10;}
	.st115{fill:#F7F8F9;stroke:#00112C;stroke-width:1.5;stroke-linecap:round;stroke-linejoin:round;stroke-miterlimit:10;}
	.st116{fill:#FFFFFF;stroke:#00112C;stroke-width:1.5;stroke-linecap:round;stroke-miterlimit:10;}
	.st117{fill:#E86456;}
	
		.st118{clip-path:url(#SVGID_00000000944984245444720020000015904711874369800836_);fill:#00112C;stroke:#00112C;stroke-width:1.5;stroke-linecap:round;stroke-linejoin:round;stroke-miterlimit:10;}
	
		.st119{clip-path:url(#SVGID_00000176003716680270315110000011857017503412548275_);fill:#00112C;stroke:#00112C;stroke-width:1.5;stroke-linecap:round;stroke-linejoin:round;stroke-miterlimit:10;}
	.st120{fill:#0ABE53;stroke:#00112C;stroke-width:1.5;stroke-linecap:round;stroke-linejoin:round;stroke-miterlimit:10;}
	.st121{fill:#D67347;stroke:#00112C;stroke-width:1.5;stroke-linecap:round;stroke-linejoin:round;stroke-miterlimit:10;}
	.st122{fill:#00B060;stroke:#000D39;stroke-width:1.5;stroke-linecap:round;stroke-linejoin:round;stroke-miterlimit:10;}
	.st123{fill:#677693;stroke:#000D39;stroke-width:1.5;stroke-linecap:round;stroke-linejoin:round;stroke-miterlimit:10;}
	.st124{fill:none;stroke:#FFFFFF;stroke-width:1.5;stroke-linecap:round;stroke-miterlimit:10;}
	.st125{fill:#EA4F34;stroke:#000D39;stroke-width:1.5;stroke-linecap:round;stroke-linejoin:round;stroke-miterlimit:10;}
	.st126{fill:#FCC10F;stroke:#000D39;stroke-width:1.5;stroke-linecap:round;stroke-linejoin:round;stroke-miterlimit:10;}
	.st127{fill:none;stroke:#000D39;stroke-width:1.5;stroke-linecap:round;stroke-linejoin:round;stroke-miterlimit:10;}
	.st128{fill:#FFC942;stroke:#000D39;stroke-width:1.5;stroke-linecap:round;stroke-linejoin:round;stroke-miterlimit:10;}
	.st129{fill:none;stroke:#F8951D;stroke-width:1.5;stroke-linecap:round;stroke-linejoin:round;stroke-miterlimit:10;}
	.st130{fill:#F8951D;stroke:#000D39;stroke-width:1.5;stroke-linecap:round;stroke-linejoin:round;stroke-miterlimit:10;}
	
		.st131{clip-path:url(#SVGID_00000138556285901219896310000005318672318284044969_);fill:#00112C;stroke:#00112C;stroke-width:1.5;stroke-linecap:round;stroke-linejoin:round;stroke-miterlimit:10;}
	
		.st132{clip-path:url(#SVGID_00000054261115112665274940000011073554639208523650_);fill:#00112C;stroke:#00112C;stroke-width:1.5;stroke-linecap:round;stroke-linejoin:round;stroke-miterlimit:10;}
	.st133{fill:#08903F;stroke:#08903F;stroke-width:1.5;stroke-linecap:round;stroke-linejoin:round;stroke-miterlimit:10;}
</style>
<g>
	<g>
		<polygon class="st1" points="483.4,168.8 351.3,168.8 11.3,687.5 823.3,687.5 		"/>
		<path class="st0" d="M400.4,93.8l-49.1,75c-3.6,5.5,0.3,12.7,6.9,12.7h118.3c6.5,0,10.5-7.3,6.9-12.7l-49.1-75H400.4z"/>
	</g>
	<ellipse class="st0" cx="423.8" cy="397.9" rx="22.1" ry="30.1"/>
	<ellipse class="st111" cx="432.8" cy="397.9" rx="22.1" ry="30.1"/>
	<rect x="414.6" y="462.7" class="st111" width="149" height="208.7"/>
	<polygon class="st2" points="521.9,414 524.2,445.4 535.6,433.4 548.9,438.7 551,422.8 566,421.6 543.9,398.3 	"/>
	<line class="st6" x1="417.2" y1="73.2" x2="417.2" y2="2.8"/>
	<g>
		<path class="st121" d="M528.5,417.7v26.9c0,7.8,6.1,14.1,13.7,14.1h5.7c0,0-9.5,52.4-69,47.7c-44.7-3.6-36.7-47.3-36.7-47.3
			l26.6-0.3L528.5,417.7z"/>
		<path class="st2" d="M475.1,478.9c16.9,0,31.2-11.5,35.3-27.2c-11.7,11.9-29.7,18.6-46.3,15.7c-4.2-0.7-11.4-2.9-18.8-8.4l-2.6,0
			C448.8,470.9,461,478.9,475.1,478.9z"/>
		<path class="st121" d="M511.6,450.4c-11.7,12.8-30.4,19.9-47.6,17c-9.9-1.7-37.1-11.3-42.4-54.8c-7.4-60.8,36.4-88.6,65.7-83.7
			c19.7,3.3,32.4,22.5,37.7,45.2c1,4.3,5.9,6.3,9.6,4.1l0,0c1.8-1.1,4-1.2,5.9-0.4c2.9,1.3,5.3,3.7,6.7,6.6c1.9,4,2,8.8,1,13.2
			c-1.7,7.7-6.2,18.7-19.9,20v11.9"/>
		<path class="st2" d="M442.5,363.5c-9,0.1-17.6-6.2-20.3-14.8c-2.7-8.6,0.8-18.7,8.2-23.7l9.9,6.5"/>
		<path class="st2" d="M547,346c-4.8-8.3-13.3-14.6-22.3-17.8c3.7-3.7,3.1-14.9,0.4-19.3c-10,4.5-24.7,10.1-36.1,3.5
			c-11-6.3-25-4.1-37,1c-7,3-12.8,8.7-15.8,15.7c-3.2,7.3-3.6,17.8,1.1,24.4c2.1,3,5.2,5.2,9.5,6c6.1,1.1,12.2-1.1,17.8-3.7
			c5.6-2.5,11.2-5.5,17.3-6.2c11.3-1.2,22.5,6.5,27.2,16.9c3.5,7.8,5,16.4,3.6,24.7c-0.8,4.7,2,9.3,6.6,10.5l3.9,1.1l0.6-2.3
			c1.6-8.1,4.3-13.7,6.9-17.3c4.2-5.9,13.4-5.4,16.6,1.2c0,0,0,0.1,0.1,0.1c0.2,0.4,0.4,0.8,0.5,1.3
			C553.5,373.1,554.2,358.3,547,346z"/>
		<path class="st11" d="M486.2,333.7c9.7-6.5,22.3-8.4,33.4-5"/>
		<g>
			<path class="st18" d="M461.9,397.9L461.9,397.9c9,2,18.3,2.1,27.2,0.5l0,0c0,0,1.8,12.9-12.8,13.7
				C461.6,412.8,461.9,397.9,461.9,397.9z"/>
			<path class="st8" d="M461.9,397.9c9,2,19.5,1.3,27.2,0.5"/>
		</g>
		<g>
			<path class="st18" d="M422,399.1L422,399.1c7.9,0.1,16.1,0.7,24-1.6h0c0,0,0.5,14.9-12.4,14.5C420.6,411.7,422,399.1,422,399.1z"
				/>
			<path class="st8" d="M422,399.1c7.7,0,16.1,0.7,24-1.6"/>
		</g>
		<path class="st35" d="M474.8,400.4c-4.3-0.8-8.5,2.1-9.3,6.4c-0.1,0.4-0.1,0.8-0.1,1.3c2.1,2.4,5.4,4.2,10.8,4
			c1.8-0.1,3.3-0.4,4.6-0.8c0.2-0.5,0.3-1,0.4-1.5C482,405.4,479.2,401.2,474.8,400.4z"/>
		<path class="st35" d="M433.1,400.5c-4.1-1.1-8.3,1.2-9.6,5.2c1.5,3.3,4.4,6.2,10.1,6.4c1.8,0.1,3.4-0.2,4.7-0.7
			c0.1-0.3,0.3-0.7,0.4-1.1C439.9,406.1,437.4,401.7,433.1,400.5z"/>
		<g>
			<path class="st35" d="M466.1,386.2c-1.6-0.3-2.9-1.6-3.2-3.3c-0.3-2.1,1.2-4.1,3.3-4.4c8.8-1.3,17.9-0.5,26.4,2.1
				c0.8,0.3,1.5,0.9,1.8,1.7c1.3,3.8-1.8,6.3-4.7,5.5c-7.2-2.2-15-2.7-22.4-1.7C466.9,386.3,466.5,386.3,466.1,386.2z"/>
		</g>
		<g>
			<path class="st35" d="M423.1,389.3c-1.2-0.2-2.2-1-2.8-2.2c-0.9-1.9,0-4.2,1.9-5.1c6.7-3.1,14.1-4.6,21.5-4.3
				c2.2,0.1,3.8,1.9,3.7,4c-0.1,2.1-1.9,3.8-4,3.7c-6.2-0.2-12.4,1-18,3.6C424.7,389.4,423.9,389.5,423.1,389.3z"/>
		</g>
		<path class="st8" d="M449.2,401.4c0,0,2,18.1-5.4,26.7s-3.8,17.1,5.6,15.6c9.4-1.4,12.4-6.2,12.4-6.2"/>
	</g>
	<path class="st99" d="M416.4,459.2h25.8l-5.9,36.8c-8.9,55.3-12.9,111.3-12,167.3l0.4,24.2H295.3l33.1-102.3l26.2-81
		C363.2,477.3,388.2,459.2,416.4,459.2z"/>
	<path class="st99" d="M595.2,458.8h-47.4c-4.2,35-10.2,145,0,228.9l150.1-0.2c16.5-17.1,21.5-42.3,12.6-64.3l-55.8-125.7
		C644.1,474,620.9,458.8,595.2,458.8z"/>
	<path class="st121" d="M451.7,643.6c-8,1.6-16,3.2-24,4.8c-0.2,3.8,2.2,7.8,5.5,9.7s7.3,2.3,11.1,1.7"/>
	<path class="st99" d="M431.2,459.5l-7.4-0.3c0,0-1.2-2.9-0.3-6.1c0.9-3.2,10.3-5.8,10.3-5.8c3.6,5.9,11.5,11.9,11.5,11.9l-3.1,0
		c-14.6,72.4,18,95.5,26.9,107.9c5.1,7.1,4.3,15.1,4.3,15.1l-4.3,98.6H355.6"/>
	<path class="st99" d="M557,459.2c9.2,0,19.6-0.3,19.6-0.3s0.3-7.7-9-13.5c-9.3-5.8-39.2-6.4-39.2-6.4c0,9.3,0.8,13.4,6.5,17.7
		c3.3,2.5,8.7,58.9-6.6,75.8c-15.2,16.9-53.9,27.7-55,49.7s-2.4,61.5-2.4,61.5s69.8,28.6,92.5,27.8"/>
	<path class="st121" d="M450.3,643.4c4.2-4.4,10.2-6.7,16.3-6l77.4,11.5c2.2,0.3,4.4,0.5,6.6,0.5h32.1l29.6-7.5
		c5.3-1.2,10.8-1.2,16.1,0.2c22.9,6.4,24.3,34.9,19.3,45.4l-137.4,0l1-13.5h-89.8L450.3,643.4z"/>
	<line class="st8" x1="462.3" y1="651.9" x2="439.7" y2="674"/>
	<line class="st8" x1="478.8" y1="654.8" x2="459.3" y2="674"/>
	<line class="st8" x1="494.1" y1="659" x2="478.8" y2="674"/>
	<polygon class="st2" points="528.9,673.9 541.3,687.5 515.4,687.5 	"/>
	<path class="st2" d="M176.6,673.9L176.6,673.9c0,7.5,6.1,13.6,13.6,13.6h230.4v-13.6H176.6z"/>
	<path class="st6" d="M393.4,673.9L393.4,673.9c0,7.5,6.1,13.6,13.6,13.6h108.4c7.5,0,13.6-6.1,13.6-13.6v0H393.4z"/>
	<path class="st8" d="M618.5,639.9c14-4.7,25.6-4.5,31.5-2.9c25.9,7.3,27.5,38.5,21.9,50.4"/>
	<polygon class="st2" points="604.6,579.6 608.9,642.5 618.5,639.9 	"/>
	<path class="st8" d="M674.6,632.2c-21.4-4.5-40.5,4.1-40.5,4.1"/>
	<path class="st99" d="M405,93.8h24.5c2.6,0,4.7-2.1,4.7-4.7V77.9c0-2.6-2.1-4.7-4.7-4.7h-24.7c-2.6,0-4.7,2.2-4.7,4.8l0.2,11.3
		C400.4,91.8,402.5,93.8,405,93.8z"/>
	<line class="st6" x1="423" y1="93.8" x2="423" y2="83.5"/>
	<line class="st6" x1="411.3" y1="93.8" x2="411.3" y2="83.5"/>
	<g>
		<rect x="11.3" y="687.5" class="st6" width="812" height="25.8"/>
		<line class="st8" x1="586" y1="687.5" x2="586" y2="713.2"/>
	</g>
	<path class="st8" d="M462.9,451.7c0,0,17.7,2.2,24.5-18.4"/>
	<path class="st8" d="M530.3,404.3c0,0-0.6-13.9,9.3-18.4"/>
	<path class="st99" d="M525,373.6c-1.3-6.2-12.3-54-36.1-59.8c-0.8-0.2-0.7-1.3,0.1-1.4c5.7-0.6,14.8-0.8,23.8,1.9
		c6.8,2,26.6,14,31.1,56.3c0,0.4-0.2,0.7-0.6,0.8l-17.4,2.9C525.4,374.2,525.1,373.9,525,373.6z"/>
	<ellipse class="st111" cx="534.9" cy="397.9" rx="22.1" ry="30.1"/>
	<ellipse class="st0" cx="543.9" cy="397.9" rx="22.1" ry="30.1"/>
	<ellipse class="st99" cx="545.7" cy="397.9" rx="11.3" ry="15.4"/>
	<path class="st51" d="M519.6,325c0,0,10.2,5.6,18.1,35.2"/>
	<path class="st99" d="M544.4,454.1c0,0,5.5,5.9,15.7,5.1"/>
	<circle class="st2" cx="554.3" cy="485" r="3.9"/>
	<circle class="st2" cx="425.5" cy="482.8" r="3.9"/>
	<g>
		<path class="st0" d="M422,536.5c-1.5,0-2.8-1.1-3-2.7c-2.5-22.8,3.3-47.6,3.5-48.6c0.4-1.6,2-2.6,3.6-2.2c1.6,0.4,2.6,2,2.2,3.6
			c-0.1,0.2-5.8,24.8-3.4,46.6c0.2,1.6-1,3.1-2.7,3.3C422.2,536.5,422.1,536.5,422,536.5z"/>
	</g>
	<g>
		<path class="st0" d="M554.3,546c-1.5,0-2.8-1.1-3-2.5c-2.6-23.9,0-55.5,0-55.8c0.1-1.6,1.6-2.7,3.2-2.6c1.7,0.1,2.9,1.5,2.8,3
			c0,0.3-2.5,31.4,0,54.8c0.2,1.6-1,2.9-2.7,3.1C554.5,546,554.4,546,554.3,546z"/>
	</g>
	
		<rect x="419.7" y="533.9" transform="matrix(0.9952 -9.755360e-02 9.755360e-02 0.9952 -50.5757 43.8072)" class="st111" width="6.1" height="10.5"/>
	
		<rect x="551.4" y="539.2" transform="matrix(0.9958 -9.157470e-02 9.157470e-02 0.9958 -47.5308 53.065)" class="st111" width="6.2" height="10.5"/>
	<rect x="469.1" y="573.3" class="st0" width="7.5" height="16.5"/>
	<circle class="st99" cx="472.8" cy="578.5" r="1.8"/>
	<polygon class="st2" points="376.4,573.3 378.6,558.1 380.3,586.9 	"/>
	<path class="st6" d="M401.2,660.2l-46.9-164.1c-2-7-8.4-11.8-15.6-11.8H135c-7.2,0-12.4,6.9-10.4,13.8l46.9,164.1
		c2,7,8.4,11.8,15.6,11.8h203.7C398,674,403.2,667.1,401.2,660.2z"/>
	<path class="st6" d="M390.8,660.2l-46.9-164.1c-2-7-8.4-11.8-15.6-11.8H124.5c-7.2,0-12.4,6.9-10.4,13.8L161,662.2
		c2,7,8.4,11.8,15.6,11.8h203.7C387.5,674,392.7,667.1,390.8,660.2z"/>
	<g>
		<line class="st114" x1="233.4" y1="474" x2="233.4" y2="443.9"/>
		<path class="st2" d="M312.7,445.4H154c-4.6,0-8.4-3.7-8.4-8.4v-120c0-4.6,3.7-8.4,8.4-8.4h158.6c4.6,0,8.4,3.7,8.4,8.4v120
			C321,441.6,317.3,445.4,312.7,445.4z"/>
		<g>
			<polyline class="st82" points="184.4,340.2 180.5,344.2 184.4,348.1 			"/>
			<line class="st82" x1="189.4" y1="344.2" x2="199.3" y2="344.2"/>
			<line class="st83" x1="204.3" y1="344.2" x2="234" y2="344.2"/>
			<polyline class="st83" points="184.4,367.9 180.5,371.9 184.4,375.9 			"/>
			<line class="st83" x1="189.4" y1="371.9" x2="209.2" y2="371.9"/>
			<polyline class="st82" points="269.9,362 273.8,358 269.9,354.1 			"/>
			<line class="st82" x1="188.8" y1="385.9" x2="198.7" y2="385.9"/>
			<line class="st83" x1="203.6" y1="385.9" x2="213.5" y2="385.9"/>
			<line class="st82" x1="218.5" y1="385.9" x2="233.4" y2="385.9"/>
			<line class="st82" x1="179.5" y1="358" x2="199.3" y2="358"/>
			<line class="st82" x1="204.3" y1="358" x2="219.1" y2="358"/>
			<line class="st83" x1="288.2" y1="372" x2="268.4" y2="372"/>
			<line class="st83" x1="259.1" y1="372" x2="216.4" y2="372"/>
			<line class="st82" x1="273.9" y1="344.2" x2="244.2" y2="344.2"/>
			<line class="st82" x1="259.1" y1="358" x2="244.2" y2="358"/>
			<line class="st82" x1="238.7" y1="358" x2="223.9" y2="358"/>
			<line class="st82" x1="253.6" y1="385.9" x2="238.7" y2="385.9"/>
			<rect x="166.4" y="330.3" class="st87" width="133.9" height="93.5"/>
			<line class="st82" x1="261.6" y1="362" x2="266.3" y2="354.1"/>
		</g>
		<g>
			<path class="st0" d="M105.5,687.1H54.4c-2.5,0-4.7-1.9-5-4.5l-9.5-86.4h80l-9.5,86.4C110.1,685.1,108,687.1,105.5,687.1z"/>
			<g>
				<path class="st2" d="M57.8,677l44.3,0c5.1,0,9.4-3.9,9.9-9l5.7-51.6H42.2l5.7,51.6C48.4,673.1,52.7,677,57.8,677z"/>
				<polygon class="st1" points="41,606.3 42.2,616.4 117.7,616.4 118.8,606.3 				"/>
			</g>
			<path class="st16" d="M59.9,596.2l4,56.5c0.6,8,7.1,14.2,15.1,14.2h1.9c7.9,0,14.5-6.2,15.1-14.2l4-56.5"/>
			<path class="st16" d="M99.9,596.2l-3.8,54.3c-0.6,8.8,6.3,16.3,15.1,16.3h0"/>
			<path class="st16" d="M59.9,596.2l3.8,54.3c0.6,8.8-6.3,16.3-15.1,16.3h0"/>
			<line class="st2" x1="59.9" y1="596.2" x2="61.3" y2="615.4"/>
			<line class="st8" x1="98.6" y1="615.4" x2="99.9" y2="596.2"/>
		</g>
		
			<ellipse transform="matrix(0.6753 -0.7375 0.7375 0.6753 -347.1898 369.5537)" class="st1" cx="246.2" cy="579.1" rx="9.3" ry="11.1"/>
	</g>
	<g>
		<g>
			<path class="st99" d="M239.6,640.3l-30.4-5.9c-6.7-1.3-12-8-11.9-14.9l0.2-10.2c0-1.3,1-2.1,2.2-1.9l40.3,7.8
				c6.7,1.3,12,8,11.9,14.9v0C251.8,637,246.2,641.5,239.6,640.3z"/>
			<g>
				<path class="st18" d="M212,615.7l1,0.2l0,2.2c0,0.4,0,1.9-0.1,2.6l0,0c0.4-0.8,1.3-1.1,2.3-0.9c1.4,0.3,2.5,1.3,2.5,3.4
					l-0.1,4.4l-1-0.2l0.1-4.3c0-1.6-0.7-2.4-1.7-2.6c-1.1-0.2-2.1,0.6-2.1,2.3l-0.1,3.8l-1-0.2L212,615.7z"/>
				<path class="st18" d="M222.6,621.3c1.7,0.3,3,1.9,2.9,4l0,0.4l-5.2-1c0,1.7,0.8,3,2.2,3.3c1.1,0.2,1.8-0.3,1.9-1.1l1,0.2
					c-0.2,1.3-1.4,2.1-2.9,1.8c-2.1-0.4-3.2-2.1-3.2-4.4C219.4,622.2,220.8,620.9,222.6,621.3z M220.4,623.9l4.2,0.8
					c-0.1-1.5-0.8-2.4-2-2.6C221.5,621.9,220.7,622.6,220.4,623.9z"/>
				<path class="st18" d="M226.9,632c0.9,0.2,1.4-0.3,1.8-1.2l0.3-0.7l-2.6-8l1.1,0.2l2,6.5l0,0l2.2-5.7l1,0.2l-3.2,7.9
					c-0.4,1-1.1,1.9-2.4,1.7l-0.6-0.1l0-0.9L226.9,632z"/>
				<path class="st18" d="M234.1,623.4l0-2.7l1.1,0.2l0,2.7l-0.4,4.6l-0.5-0.1L234.1,623.4z M234,629.3l1.1,0.2l0,1.5l-1.1-0.2
					L234,629.3z"/>
			</g>
			<path class="st2" d="M240.2,634.7l3.4,19c0.1,0.7,0.9,1,1.3,0.5l4.1-5.2c0.1-0.1,0.2-0.2,0.4-0.2l6.6-0.6
				c0.6-0.1,0.7-0.9,0.2-1.3l-14.9-12.7C240.8,633.7,240.1,634,240.2,634.7z"/>
			<path class="st51" d="M241.5,618.8c3.9,1.6,6.9,6.2,7.1,10.2"/>
		</g>
	</g>
	<g>
		<path class="st111" d="M168.4,566.2c-0.9-0.4-1.8-0.9-2.6-1.4c-2.2-1.3-4.3-3.2-4.7-5.5c1.7,0.3,4,0.4,5.7,1
			c-5-2.1-8.3-7.3-10.2-12.3c-1.8-5-2.5-10.4-0.7-14.7c0.1-0.2,0.3-0.1,0.4,0c0.5,1,1.7,3.2,3.7,5.5c2.6,3,6.4,3.3,6.4,3.3
			c-1.5-2.8-2.4-6.3-1.6-9.5c0.6-2.4,2.3-4.2,3.7-6.1c1.6-2.2,2.4-5.1,2.1-8.1c-0.3-3.2-1.9-5.7-3.7-8.5c5.4-0.6,11.5,2.1,15.9,6
			c5.2,4.6,7.2,10.6,8.2,16.7c0.7,4.3,3.2,2.3,3.5-0.5c0.1-1.2,0-2.6,0.6-3.6c2.6,1.6,5.1,5.1,6.4,7.8c3.5,7,2,14.5,0.4,21.2
			l3.5-3.8c0.7,1.4,0.8,2.9,0.5,4.3c-0.8,5.4-5.4,9-10.4,10.5C187.7,570.8,176.9,570.2,168.4,566.2z"/>
		<path class="st0" d="M179.4,568.3c-4.5-2-8-6.7-10.1-10.9c-0.7-1.4-1.3-2.8-1.7-4.3c-0.7-2.6-0.9-5.6,0.8-7.3
			c1.4,1.4,3.2,2.4,5,2.9c-1.8-2.1-1.8-5-1.5-7.4c0.6-4.2,2-8.3,4.1-11.9c3.2,2.8,6.5,5.7,9.2,9s4.8,7.2,5.3,11.1
			c0.9-1.2,1.9-2.3,2.8-3.5c3,3.6,4.5,8.3,3.9,12.4c-0.4,2.8-2.1,6.7-4.1,8.5c-3.4,3-8.3,3.8-13.6,1.5
			C179.6,568.3,179.5,568.3,179.4,568.3z"/>
		
			<ellipse transform="matrix(0.6753 -0.7375 0.7375 0.6753 -354.338 318.1901)" class="st18" cx="184.2" cy="561.6" rx="6.7" ry="8"/>
		<path class="st111" d="M159.1,522.4c0.6-0.5,1.2-0.8,1.7-1.1c0.5-0.2,1.3,3,0.5,6.9c-0.4,1.7-2.4,4.6-4.8,3
			C152.9,528.9,156.4,524.4,159.1,522.4z"/>
	</g>
	<g>
		<path class="st0" d="M333.2,565.8c-1.3-4.7-5.1-8.6-9.5-10.2c-0.2-0.1-0.3-0.6-0.2-0.9c1.3-2.6,1.5-5.8,0.4-9.2
			c-2.1-6.5-8.8-11.3-15.3-11.1c-7.5,0.3-12.1,6.9-10,14.3c0.5,1.7,1.3,3.4,2.3,4.8c0,0-13,6.6-21.1-2.3l0,0
			c-1.4,3.5-1.5,7.6-0.2,11.6c2.6,8.1,9.2,20.2,25.4,18.5c24.2-2.4,9.2-0.9,19-1.9c3.1-0.3,5.3-1.5,6.8-3.2
			C333.3,573.8,334.3,570,333.2,565.8z"/>
		<path class="st127" d="M314.3,550.1c-0.3-1.2,0.4-2.2,1.5-2.4c1.2-0.1,2.4,0.8,2.7,1.9"/>
		<g>
			<path class="st0" d="M306,575.6c8.6-0.9,13.7-8.7,11.3-17.5l-31.3,3.1C288.4,570,297.3,576.4,306,575.6z"/>
		</g>
		<path class="st16" d="M290.6,565.3c0,0,4.1,6.1,11.7,7.2"/>
		<path class="st16" d="M301.3,547.5c0,0-2-6.3,3.7-9.6"/>
		<path class="st16" d="M281.4,557.5c0,0,0,5.2,2.5,9.1"/>
		<path class="st16" d="M308,537.1c0,0,2.1-1.1,4.3,0.1"/>
		<path class="st99" d="M325.1,549.9l5.5-0.5c0,0,2.1,5.1-7.1,6C323.4,555.4,321.1,550.3,325.1,549.9z"/>
	</g>
</g>
<g>
	<path class="st2" d="M768.7,538.2c-18.5-8.7-15.7-28.5-13.5-40.3c0.4-2.3-0.7-4.7-2.8-5.6c-1.9-0.8-4.1-0.3-5.5,1.1l-12.6,12.9
		l-28-3.4l2.5-11.5c0.6-2.8-1.5-5.4-4.3-5.4l0,0c-1.3,0-2.3,0.7-3.3,1.5c-12.5,9.4-32.5,35-25.2,49.8c4.4,8.9,38.7,19.5,34.3,42.8
		c0,0-6.9,50.9-4.8,83.2l0.4,6c-8.2,0.6-19.8,9.2-15.5,17.2h98.7c8.6,0,15.6,7,15.6,15.6v130.7c0,8.3,6.8,15.1,15.1,15.1l0,0
		c8.3,0,15.1-6.8,15.1-15.1V698.7c0-7.9,1.1-15.7,3.3-23.3C865.9,577.8,768.7,538.2,768.7,538.2z"/>
	<path class="st11" d="M753.6,606.2c-7.6,6.1-13.2,14.6-15.6,24c-3.5,14,0.4,29.6,10.1,40.4c-7.5,0.9-14.9,7.7-16.8,15"/>
</g>
<g>
	<g>
		
			<ellipse transform="matrix(0.3692 -0.9294 0.9294 0.3692 -38.7291 972.3253)" class="st18" cx="696.9" cy="514.7" rx="6.4" ry="10"/>
	</g>
	<g>
		
			<ellipse transform="matrix(0.9972 -7.505809e-02 7.505809e-02 0.9972 -37.0799 56.0011)" class="st19" cx="726.5" cy="521.3" rx="10.1" ry="6.5"/>
	</g>
	<g>
		<defs>
			
				<ellipse id="SVGID_00000103232733339324442840000011291219201841330577_" transform="matrix(0.3692 -0.9294 0.9294 0.3692 -38.7291 972.3253)" cx="696.9" cy="514.7" rx="6.4" ry="10"/>
		</defs>
		<use xlink:href="#SVGID_00000103232733339324442840000011291219201841330577_"  style="overflow:visible;fill:#85DFA9;"/>
		<clipPath id="SVGID_00000180330701420277864930000011335368292993189284_">
			<use xlink:href="#SVGID_00000103232733339324442840000011291219201841330577_"  style="overflow:visible;"/>
		</clipPath>
		
			<circle style="clip-path:url(#SVGID_00000180330701420277864930000011335368292993189284_);fill:#00112C;stroke:#00112C;stroke-width:1.5;stroke-linecap:round;stroke-linejoin:round;stroke-miterlimit:10;" cx="693.9" cy="511.5" r="6.4"/>
	</g>
	<g>
		<defs>
			
				<ellipse id="SVGID_00000126299143355790442400000007943261304386169512_" transform="matrix(0.9972 -7.505809e-02 7.505809e-02 0.9972 -37.0799 56.0011)" cx="726.5" cy="521.3" rx="10.1" ry="6.5"/>
		</defs>
		<clipPath id="SVGID_00000131347329816379104200000005911160640967003525_">
			<use xlink:href="#SVGID_00000126299143355790442400000007943261304386169512_"  style="overflow:visible;"/>
		</clipPath>
		
			<circle style="clip-path:url(#SVGID_00000131347329816379104200000005911160640967003525_);fill:#00112C;stroke:#00112C;stroke-width:1.5;stroke-linecap:round;stroke-linejoin:round;stroke-miterlimit:10;" cx="723.4" cy="517.9" r="6.4"/>
	</g>
</g>
<path class="st133" d="M703.6,526.1l7.4,2.3c1,0.3,1.2,1.7,0.2,2.3l-5.6,3.2c-0.7,0.4-1.6,0.1-1.8-0.7l-1.8-5.5
	C701.7,526.7,702.6,525.8,703.6,526.1z"/>
<path class="st11" d="M690.1,523.1c0,0-14.1-11.9-35.8-11.3"/>
<path class="st11" d="M687.5,528c0,0-16.5-8.3-37.4-2.8"/>
<path class="st11" d="M727.9,533.2c0,0,18.4-1.2,35.5,12.1"/>
<path class="st11" d="M727,538.7c0,0,18.2,3.1,31.8,19.9"/>
</svg>
