<svg width="576" height="324" viewBox="0 0 576 324" fill="none" xmlns="http://www.w3.org/2000/svg">
<path d="M125.826 143.3H23V192.542H125.826V143.3Z" fill="#FFC200" stroke="#00112C" stroke-width="1.5" stroke-linecap="round" stroke-linejoin="round"/>
<path d="M150.573 125.659H101.07V174.901H150.573V125.659Z" fill="#0ABF53" stroke="#00112C" stroke-width="1.5" stroke-linecap="round" stroke-linejoin="round"/>
<path d="M478.532 117.759V157.161H445.334V183.129H553.661V117.759H478.532Z" fill="#0ABF53" stroke="#00112C" stroke-width="1.5" stroke-linecap="round" stroke-linejoin="round"/>
<path d="M481.036 117.404H445.783V163.471H481.036V117.404Z" fill="#00112C" stroke="#00112C" stroke-width="1.5" stroke-linecap="round" stroke-linejoin="round"/>
<path d="M291.371 31.7231H195.716V100.725H291.371V31.7231Z" fill="#00112C" stroke="#00112C" stroke-width="1.5" stroke-linecap="round" stroke-linejoin="round"/>
<path d="M472.258 61.0272H332.759V154.478H472.258V61.0272Z" fill="#F7F8F9" stroke="#00112C" stroke-width="1.5" stroke-linecap="round" stroke-linejoin="round"/>
<path d="M263.747 185.557H332.46V150.285" stroke="#00112C" stroke-width="1.5" stroke-linecap="round" stroke-linejoin="round"/>
<path d="M332.46 187.667C333.626 187.667 334.571 186.722 334.571 185.556C334.571 184.391 333.626 183.446 332.46 183.446C331.294 183.446 330.349 184.391 330.349 185.556C330.349 186.722 331.294 187.667 332.46 187.667Z" fill="#F7F8F9" stroke="#00112C" stroke-width="1.5" stroke-linecap="round" stroke-linejoin="round"/>
<path d="M332.46 155.832C333.626 155.832 334.571 154.887 334.571 153.721C334.571 152.556 333.626 151.611 332.46 151.611C331.294 151.611 330.349 152.556 330.349 153.721C330.349 154.887 331.294 155.832 332.46 155.832Z" fill="#F7F8F9" stroke="#00112C" stroke-width="1.5" stroke-linecap="round" stroke-linejoin="round"/>
<path d="M298.729 187.667C299.895 187.667 300.84 186.722 300.84 185.556C300.84 184.391 299.895 183.446 298.729 183.446C297.564 183.446 296.619 184.391 296.619 185.556C296.619 186.722 297.564 187.667 298.729 187.667Z" fill="#F7F8F9" stroke="#00112C" stroke-width="1.5" stroke-linecap="round" stroke-linejoin="round"/>
<path d="M195.772 153.721V85.0179" stroke="#00112C" stroke-width="1.5" stroke-linecap="round" stroke-linejoin="round"/>
<path d="M195.772 103.788C196.938 103.788 197.883 102.843 197.883 101.678C197.883 100.512 196.938 99.5673 195.772 99.5673C194.606 99.5673 193.661 100.512 193.661 101.678C193.661 102.843 194.606 103.788 195.772 103.788Z" fill="#F7F8F9" stroke="#00112C" stroke-width="1.5" stroke-linecap="round" stroke-linejoin="round"/>
<path d="M195.772 137.519C196.938 137.519 197.883 136.574 197.883 135.409C197.883 134.243 196.938 133.298 195.772 133.298C194.606 133.298 193.661 134.243 193.661 135.409C193.661 136.574 194.606 137.519 195.772 137.519Z" fill="#F7F8F9" stroke="#00112C" stroke-width="1.5" stroke-linecap="round" stroke-linejoin="round"/>
<path d="M263.757 150.285H125.827V238.655H263.757V150.285Z" fill="#F7F8F9" stroke="#00112C" stroke-width="1.5" stroke-linecap="round" stroke-linejoin="round"/>
<path d="M23.2335 312H553.662" stroke="#00112C" stroke-width="1.5" stroke-linecap="round" stroke-linejoin="round"/>
<path d="M280.398 12H175.48V87.6887H280.398V12Z" fill="#FFC200" stroke="#00112C" stroke-width="1.5" stroke-linecap="round" stroke-linejoin="round"/>
<path d="M125.826 174.901H113.546V192.542H125.826V174.901Z" fill="#00112C" stroke="#00112C" stroke-width="1.5" stroke-linecap="round" stroke-linejoin="round"/>
<path d="M257.499 71.2156L227.971 50.839" stroke="#00112C" stroke-width="1.5" stroke-miterlimit="10"/>
<path d="M189.767 58.7303L228.092 51.0634" stroke="#00112C" stroke-width="1.5" stroke-miterlimit="10"/>
<path d="M211.983 21.7683L227.971 50.8391" stroke="#00112C" stroke-width="1.5" stroke-miterlimit="10"/>
<path d="M250.636 23.636L207.305 75.6329" stroke="#00112C" stroke-width="1.5" stroke-miterlimit="10"/>
<path d="M227.971 70.0016C238.555 70.0016 247.134 61.4222 247.134 50.839C247.134 40.2557 238.555 31.6763 227.971 31.6763C217.388 31.6763 208.809 40.2557 208.809 50.839C208.809 61.4222 217.388 70.0016 227.971 70.0016Z" fill="#00112C" stroke="#00112C" stroke-width="1.5" stroke-miterlimit="10"/>
<path d="M185.938 62.5682H193.605V54.9013H185.938V62.5682Z" fill="#F7F8F9" stroke="#00112C" stroke-width="1.5" stroke-linecap="round" stroke-linejoin="round"/>
<path d="M216.756 19.8071H209.089V27.4741H216.756V19.8071Z" fill="#F7F8F9" stroke="#0ABF53" stroke-width="1.5" stroke-linecap="round" stroke-linejoin="round"/>
<path d="M261.328 67.3871H253.661V75.054H261.328V67.3871Z" fill="#F7F8F9" stroke="#0ABF53" stroke-width="1.5" stroke-linecap="round" stroke-linejoin="round"/>
<path d="M227.972 49.8771C229.029 49.8771 229.886 49.02 229.886 47.9627C229.886 46.9054 229.029 46.0483 227.972 46.0483C226.914 46.0483 226.057 46.9054 226.057 47.9627C226.057 49.02 226.914 49.8771 227.972 49.8771Z" fill="#00112C" stroke="#F7F8F9" stroke-width="1.5" stroke-miterlimit="10" stroke-linecap="round"/>
<path d="M224.143 55.6298V53.3325C224.143 52.4827 224.834 51.801 225.674 51.801H230.278C231.128 51.801 231.81 52.4921 231.81 53.3325V55.6298" fill="#00112C"/>
<path d="M224.143 55.6298V53.3325C224.143 52.4827 224.834 51.801 225.674 51.801H230.278C231.128 51.801 231.81 52.4921 231.81 53.3325V55.6298" stroke="#F7F8F9" stroke-width="1.5" stroke-miterlimit="10" stroke-linecap="round"/>
<path d="M181.633 192.168H172.183V216.869H181.633V192.168Z" fill="#0ABF53" stroke="#00112C" stroke-width="1.5" stroke-linecap="round" stroke-linejoin="round"/>
<path d="M199.097 170.718H189.646V216.869H199.097V170.718Z" fill="#0ABF53" stroke="#00112C" stroke-width="1.5" stroke-linecap="round" stroke-linejoin="round"/>
<path d="M216.551 183.343H207.1V216.878H216.551V183.343Z" fill="#0ABF53" stroke="#00112C" stroke-width="1.5" stroke-linecap="round" stroke-linejoin="round"/>
<path d="M166.412 216.869H221.518" stroke="#00112C" stroke-width="1.5" stroke-linecap="round" stroke-linejoin="round"/>
<path d="M216.652 205.233H354.339C358.084 205.233 361.119 208.268 361.119 212.013H209.872C209.872 208.268 212.907 205.233 216.652 205.233Z" fill="#00112C" stroke="#00112C" stroke-width="1.5" stroke-linecap="round" stroke-linejoin="round"/>
<path d="M361.119 212.012H209.872V304.38H361.119V212.012Z" fill="#0ABF53" stroke="#00112C" stroke-width="1.5" stroke-linecap="round" stroke-linejoin="round"/>
<path d="M285.496 209.995C286.357 209.995 287.056 209.297 287.056 208.436C287.056 207.574 286.357 206.876 285.496 206.876C284.635 206.876 283.937 207.574 283.937 208.436C283.937 209.297 284.635 209.995 285.496 209.995Z" fill="#00112C" stroke="#F7F8F9" stroke-width="1.5" stroke-linecap="round" stroke-linejoin="round"/>
<path d="M361.119 296.75H209.872V303.745H361.119V296.75Z" fill="#00112C" stroke="#00112C" stroke-width="1.5" stroke-linecap="round" stroke-linejoin="round"/>
<path d="M193.325 303.745H377.658C377.658 308.181 374.053 311.786 369.617 311.786H201.365C196.929 311.786 193.325 308.181 193.325 303.745Z" fill="#F7F8F9" stroke="#00112C" stroke-width="1.5" stroke-linecap="round" stroke-linejoin="round"/>
<path d="M273.487 303.745H297.496C297.496 305.865 295.768 307.593 293.649 307.593H277.325C275.205 307.593 273.477 305.865 273.477 303.745H273.487Z" fill="#F7F8F9" stroke="#00112C" stroke-width="1.5" stroke-linecap="round" stroke-linejoin="round"/>
<path d="M507.66 143.897H495.305C493.493 143.897 492.027 145.363 492.027 147.175V159.53C492.027 161.341 493.493 162.807 495.305 162.807H507.66C509.471 162.807 510.938 161.341 510.938 159.53V147.175C510.938 145.363 509.471 143.897 507.66 143.897Z" stroke="#F7F8F9" stroke-width="1.5" stroke-linecap="round" stroke-linejoin="round"/>
<path d="M501.478 137.276C504.083 137.276 506.203 139.396 506.203 142.001V143.897H496.743V142.001C496.743 139.396 498.863 137.276 501.468 137.276H501.478Z" stroke="#F7F8F9" stroke-width="1.5" stroke-linecap="round" stroke-linejoin="round"/>
<path d="M501.478 150.976V155.701" stroke="#F7F8F9" stroke-width="1.5" stroke-linecap="round" stroke-linejoin="round"/>
<path d="M290.67 227.57L285.497 222.63L280.323 227.57L259.377 247.564H311.616L290.67 227.57Z" fill="#FFE180" stroke="#00112C" stroke-width="1.5" stroke-linecap="round" stroke-linejoin="round"/>
<path d="M311.616 247.564H259.376V286.748H311.616V247.564Z" fill="#00112C" stroke="#00112C" stroke-width="1.5" stroke-linecap="round" stroke-linejoin="round"/>
<path d="M307.265 230.147H263.728V269.332H307.265V230.147Z" fill="#F7F8F9" stroke="#00112C" stroke-width="1.5" stroke-linecap="round" stroke-linejoin="round"/>
<path d="M311.616 286.748L285.496 261.814L259.376 286.748H311.616Z" fill="#FFC200" stroke="#00112C" stroke-width="1.5" stroke-linecap="round" stroke-linejoin="round"/>
<path d="M291.09 267.156L311.616 247.564V286.748L291.09 267.156Z" fill="#FFC200" stroke="#00112C" stroke-width="1.5" stroke-linecap="round" stroke-linejoin="round"/>
<path d="M279.893 267.156L259.376 286.748V247.564L279.893 267.156Z" fill="#FFC200" stroke="#00112C" stroke-width="1.5" stroke-linecap="round" stroke-linejoin="round"/>
<path d="M53.8226 126.844L43.5148 137.152L79.8991 173.536L90.2069 163.228L53.8226 126.844Z" fill="#FFE180" stroke="#00112C" stroke-width="1.5" stroke-linecap="round" stroke-linejoin="round"/>
<path d="M87.5846 176.208L95.3729 178.72L92.7395 170.932L87.5846 176.208Z" fill="#00112C" stroke="#00112C" stroke-width="1.5" stroke-linecap="round" stroke-linejoin="round"/>
<path d="M79.9177 173.575L87.5847 176.208L92.7395 170.932L90.2181 163.265L79.9177 173.575Z" fill="#F7F8F9" stroke="#00112C" stroke-width="1.5" stroke-linecap="round" stroke-linejoin="round"/>
<path d="M38.3147 121.662C41.2003 118.776 45.8509 118.776 48.6151 121.662L53.77 126.817L43.4696 137.117L38.3147 131.962C35.4291 129.198 35.4291 124.548 38.3147 121.662V121.662Z" fill="#F7F8F9" stroke="#00112C" stroke-width="1.5" stroke-miterlimit="10"/>
<path d="M53.8105 126.853L49.241 122.283L38.9332 132.591L43.5027 137.161L53.8105 126.853Z" fill="#00112C" stroke="#00112C" stroke-width="1.5" stroke-linecap="round" stroke-linejoin="round"/>
<path d="M53.2473 136.585L80.4504 163.797" stroke="#00112C" stroke-width="1.5" stroke-linecap="round" stroke-linejoin="round"/>
<path d="M439.815 279.38L438.909 284.199C442.449 285.012 445.082 288.177 445.082 291.959C445.082 296.358 441.515 299.925 437.116 299.925C436.724 299.925 436.332 299.897 435.949 299.841L435.043 304.66C435.716 304.772 436.416 304.828 437.116 304.828C444.223 304.828 449.976 299.066 449.976 291.969C449.976 285.787 445.615 280.632 439.806 279.39L439.815 279.38Z" fill="#F7F8F9" stroke="#00112C" stroke-width="1.5" stroke-linecap="round" stroke-linejoin="round"/>
<path d="M429.16 291.959C429.16 287.561 432.728 283.994 437.126 283.994C437.742 283.994 438.34 284.068 438.91 284.199L439.816 279.38C438.947 279.194 438.041 279.091 437.117 279.091C430.01 279.091 424.258 284.853 424.258 291.95C424.258 298.347 428.927 303.651 435.044 304.641L435.949 299.822C432.102 299.262 429.151 295.947 429.151 291.95L429.16 291.959Z" fill="#00112C" stroke="#00112C" stroke-width="1.5" stroke-linecap="round" stroke-linejoin="round"/>
<path d="M420.41 268.426H401.023L408.578 311.794H432.232H420.41H432.232L439.787 268.426H420.41Z" fill="#F7F8F9" stroke="#00112C" stroke-width="1.5" stroke-linecap="round" stroke-linejoin="round"/>
<path d="M449.266 54.8918L424.865 61.7276L442.374 79.228L449.266 54.8918Z" fill="#00112C" stroke="#00112C" stroke-width="1.5" stroke-linecap="round" stroke-linejoin="round"/>
<path d="M415.908 114.733L389.368 88.1928L424.864 61.7275L442.374 79.2279L415.908 114.733Z" fill="#FFE180" stroke="#00112C" stroke-width="1.5" stroke-linecap="round" stroke-linejoin="round"/>
<path d="M422.819 90.4715C427.915 90.4715 432.046 86.3407 432.046 81.245C432.046 76.1494 427.915 72.0186 422.819 72.0186C417.724 72.0186 413.593 76.1494 413.593 81.245C413.593 86.3407 417.724 90.4715 422.819 90.4715Z" fill="#0ABF53" stroke="#00112C" stroke-width="1.5" stroke-linecap="round" stroke-linejoin="round"/>
<path d="M396.979 124.623L379.47 107.122L389.369 88.1932L415.909 114.733L396.979 124.623Z" fill="#FFC200" stroke="#00112C" stroke-width="1.5" stroke-linecap="round" stroke-linejoin="round"/>
<path d="M422.819 85.0645C424.929 85.0645 426.639 83.3545 426.639 81.2451C426.639 79.1356 424.929 77.4256 422.819 77.4256C420.71 77.4256 419 79.1356 419 81.2451C419 83.3545 420.71 85.0645 422.819 85.0645Z" fill="#F7F8F9" stroke="#00112C" stroke-width="1.5" stroke-miterlimit="10"/>
<path d="M366.396 101.977L382.094 102.248L399.707 84.6259L390.004 80.9185L366.396 101.977Z" fill="#0ABF53" stroke="#00112C" stroke-width="1.5" stroke-linecap="round" stroke-linejoin="round"/>
<path d="M402.089 137.669L401.827 121.98L419.439 104.358L423.147 114.061L402.089 137.669Z" fill="#0ABF53" stroke="#00112C" stroke-width="1.5" stroke-linecap="round" stroke-linejoin="round"/>
<path d="M409.661 94.5432L383.355 120.85" stroke="#00112C" stroke-width="1.5" stroke-linecap="round" stroke-linejoin="round"/>
<path d="M380.534 123.67L364.099 140.106" stroke="#00112C" stroke-width="1.5" stroke-linecap="round" stroke-linejoin="round"/>
<path d="M389.966 126.145L376.902 139.209" stroke="#00112C" stroke-width="1.5" stroke-linecap="round" stroke-linejoin="round"/>
<path d="M378.004 114.182L364.939 127.247" stroke="#00112C" stroke-width="1.5" stroke-linecap="round" stroke-linejoin="round"/>
</svg>
